<svg width="459" height="78" viewBox="0 0 459 78" fill="none" xmlns="http://www.w3.org/2000/svg">
<circle cx="62.0529" cy="43.0538" r="15.9478" fill="#FFBC59"/>
<circle cx="113.439" cy="43.0538" r="15.9478" fill="#FFBC59"/>
<circle cx="172.801" cy="43.0538" r="15.9478" fill="#FFBC59"/>
<circle cx="232.164" cy="43.94" r="15.9478" fill="#FFBC59"/>
<circle cx="291.526" cy="44.8262" r="15.9478" fill="#FFBC59"/>
<circle cx="350.882" cy="44.8262" r="15.9478" fill="#FFBC59"/>
<circle cx="410.244" cy="44.8262" r="15.9478" fill="#FFBC59"/>
<path d="M66.4816 33.4083C66.4816 33.3006 66.4349 33.1974 66.3519 33.1212C66.2688 33.0451 66.1561 33.0024 66.0386 33.0024H63.8236C62.7083 32.9515 61.6163 33.3071 60.7862 33.9916C59.9562 34.6761 59.4555 35.6338 59.3937 36.6554V38.8473H57.1787C57.0612 38.8473 56.9485 38.89 56.8655 38.9662C56.7824 39.0423 56.7357 39.1455 56.7357 39.2532V41.3638C56.7357 41.4715 56.7824 41.5747 56.8655 41.6508C56.9485 41.727 57.0612 41.7697 57.1787 41.7697H59.3937V47.2087C59.3937 47.3164 59.4404 47.4196 59.5234 47.4958C59.6065 47.5719 59.7192 47.6146 59.8367 47.6146H62.4947C62.6121 47.6146 62.7248 47.5719 62.8079 47.4958C62.891 47.4196 62.9377 47.3164 62.9377 47.2087V41.7697H65.2589C65.3575 41.771 65.4536 41.7422 65.5323 41.6878C65.6109 41.6334 65.6675 41.5565 65.6931 41.4694L66.331 39.3587C66.3486 39.2987 66.351 39.2358 66.3379 39.1749C66.3249 39.114 66.2967 39.0566 66.2556 39.0072C66.2145 38.9578 66.1616 38.9177 66.101 38.8899C66.0403 38.8622 65.9735 38.8476 65.9057 38.8473H62.9377V36.6554C62.9597 36.4545 63.0627 36.2683 63.2265 36.1332C63.3903 35.9981 63.6032 35.9238 63.8236 35.9248H66.0386C66.1561 35.9248 66.2688 35.8821 66.3519 35.8059C66.4349 35.7298 66.4816 35.6266 66.4816 35.5189V33.4083Z" fill="#240D09"/>
<path fill-rule="evenodd" clip-rule="evenodd" d="M109.894 33.039C110.697 33.0051 110.953 32.9976 112.998 32.9976C115.044 32.9976 115.3 33.0057 116.102 33.039C116.905 33.0722 117.453 33.1895 117.932 33.3595C118.434 33.5333 118.889 33.8049 119.265 34.1562C119.649 34.5006 119.945 34.9171 120.134 35.3775C120.32 35.8166 120.447 36.3185 120.484 37.0524C120.521 37.7895 120.529 38.0241 120.529 39.8978C120.529 41.7722 120.52 42.0068 120.484 42.7426C120.448 43.4765 120.32 43.9784 120.134 44.4175C119.945 44.878 119.648 45.2952 119.265 45.6401C118.889 45.9913 118.434 46.2623 117.932 46.4355C117.453 46.6061 116.905 46.7228 116.104 46.7566C115.3 46.7905 115.044 46.798 112.998 46.798C110.953 46.798 110.697 46.7899 109.894 46.7566C109.093 46.7234 108.545 46.6061 108.066 46.4355C107.563 46.2623 107.108 45.9909 106.731 45.6401C106.348 45.2955 106.052 44.8785 105.862 44.4181C105.677 43.979 105.55 43.4771 105.513 42.7432C105.476 42.0061 105.467 41.7715 105.467 39.8978C105.467 38.0234 105.476 37.7888 105.513 37.0536C105.549 36.3185 105.677 35.8166 105.862 35.3775C106.052 34.9171 106.349 34.5001 106.732 34.1555C107.108 33.8046 107.563 33.5329 108.065 33.3595C108.544 33.1895 109.092 33.0728 109.893 33.039H109.894ZM116.042 34.281C115.247 34.2478 115.009 34.2409 112.998 34.2409C110.988 34.2409 110.749 34.2478 109.955 34.281C109.221 34.3117 108.822 34.424 108.556 34.5187C108.205 34.6442 107.954 34.7929 107.69 35.0344C107.441 35.2571 107.248 35.5282 107.128 35.8279C107.024 36.0713 106.902 36.4364 106.868 37.1095C106.832 37.8371 106.824 38.0554 106.824 39.8978C106.824 41.7402 106.832 41.9585 106.868 42.6861C106.902 43.3592 107.024 43.7243 107.128 43.9677C107.248 44.2669 107.441 44.5385 107.69 44.7612C107.933 44.9902 108.23 45.1665 108.556 45.2769C108.822 45.3716 109.221 45.4839 109.955 45.5146C110.749 45.5479 110.987 45.5548 112.998 45.5548C115.01 45.5548 115.247 45.5479 116.042 45.5146C116.776 45.4839 117.175 45.3716 117.44 45.2769C117.791 45.1514 118.043 45.0027 118.306 44.7612C118.556 44.5385 118.749 44.2669 118.869 43.9677C118.972 43.7243 119.095 43.3592 119.128 42.6861C119.165 41.9585 119.172 41.7402 119.172 39.8978C119.172 38.0554 119.165 37.8371 119.128 37.1095C119.095 36.4364 118.972 36.0713 118.869 35.8279C118.732 35.5061 118.57 35.2759 118.306 35.0344C118.063 34.8055 117.767 34.6293 117.44 34.5187C117.175 34.424 116.776 34.3117 116.042 34.281ZM112.036 42.025C112.574 42.2299 113.172 42.2575 113.729 42.1032C114.286 41.9489 114.767 41.6222 115.09 41.1789C115.414 40.7356 115.559 40.2032 115.501 39.6727C115.444 39.1421 115.187 38.6463 114.775 38.27C114.512 38.0294 114.195 37.8452 113.845 37.7306C113.495 37.616 113.122 37.5739 112.752 37.6073C112.383 37.6407 112.026 37.7488 111.707 37.9238C111.388 38.0988 111.116 38.3363 110.91 38.6193C110.703 38.9023 110.568 39.2236 110.513 39.5603C110.459 39.8969 110.487 40.2405 110.594 40.5662C110.702 40.8919 110.887 41.1917 111.137 41.4439C111.386 41.6962 111.693 41.8946 112.036 42.025ZM110.261 37.3899C110.621 37.0605 111.047 36.7993 111.517 36.621C111.987 36.4428 112.49 36.3511 112.998 36.3511C113.507 36.3511 114.01 36.4428 114.48 36.621C114.949 36.7993 115.376 37.0605 115.735 37.3899C116.095 37.7192 116.38 38.1102 116.575 38.5405C116.769 38.9708 116.869 39.432 116.869 39.8978C116.869 40.3636 116.769 40.8248 116.575 41.2551C116.38 41.6854 116.095 42.0764 115.735 42.4057C115.01 43.0709 114.025 43.4445 112.998 43.4445C111.972 43.4445 110.987 43.0709 110.261 42.4057C109.535 41.7406 109.127 40.8385 109.127 39.8978C109.127 38.9571 109.535 38.055 110.261 37.3899ZM117.728 36.8793C117.817 36.8023 117.888 36.7097 117.937 36.607C117.987 36.5043 118.013 36.3936 118.015 36.2814C118.017 36.1692 117.994 36.0578 117.948 35.9539C117.902 35.8499 117.833 35.7555 117.747 35.6761C117.66 35.5968 117.557 35.5342 117.444 35.492C117.33 35.4498 117.209 35.4289 117.086 35.4306C116.964 35.4322 116.843 35.4563 116.731 35.5015C116.619 35.5467 116.518 35.6121 116.434 35.6937C116.27 35.8524 116.181 36.0632 116.184 36.2814C116.188 36.4996 116.284 36.7079 116.452 36.8622C116.621 37.0165 116.848 37.1046 117.086 37.1078C117.324 37.111 117.555 37.029 117.728 36.8793Z" fill="#240D09"/>
<path d="M179.59 36.8104C179.508 36.5451 179.351 36.3034 179.134 36.1088C178.918 35.9142 178.65 35.7732 178.355 35.6996C177.249 35.4331 172.805 35.4331 172.805 35.4331C172.805 35.4331 168.369 35.4267 167.251 35.6996C166.957 35.7735 166.689 35.9146 166.474 36.1092C166.258 36.3038 166.101 36.5453 166.019 36.8104C165.809 37.8307 165.706 38.8665 165.71 39.9042C165.708 40.9369 165.812 41.9675 166.019 42.9831C166.101 43.2484 166.258 43.49 166.474 43.685C166.69 43.8799 166.957 44.0216 167.251 44.0964C168.357 44.3628 172.805 44.3628 172.805 44.3628C172.805 44.3628 177.238 44.3628 178.355 44.0964C178.65 44.0219 178.918 43.8804 179.134 43.6854C179.35 43.4905 179.507 43.2486 179.59 42.9831C179.793 41.9681 179.893 40.9359 179.886 39.9042C179.893 38.8656 179.796 37.8318 179.59 36.8104ZM171.385 41.8163V37.9836L175.085 39.9042L171.385 41.8163Z" fill="#240D09"/>
<path fill-rule="evenodd" clip-rule="evenodd" d="M230.833 41.157H232.752V42.0448C233.029 41.5342 233.738 41.0754 234.803 41.0754C236.845 41.0754 237.33 42.0919 237.33 43.9568V47.4107H235.262V44.3815C235.262 43.3195 234.986 42.7206 234.282 42.7206C233.306 42.7206 232.9 43.366 232.9 44.381V47.4107H230.833V41.157ZM227.288 47.3291H229.355V41.0754H227.288V47.3291ZM229.651 39.0363C229.651 39.1972 229.617 39.3565 229.55 39.5049C229.483 39.6534 229.385 39.7881 229.262 39.9011C229.012 40.1317 228.674 40.2608 228.321 40.26C227.97 40.2598 227.632 40.131 227.382 39.9016C227.259 39.7882 227.161 39.6534 227.095 39.5049C227.028 39.3564 226.993 39.1972 226.993 39.0363C226.993 38.7114 227.133 38.4004 227.382 38.171C227.632 37.9412 227.97 37.8124 228.322 37.8125C228.674 37.8125 229.012 37.9416 229.262 38.171C229.511 38.4004 229.651 38.7114 229.651 39.0363Z" fill="#240D09"/>
<path fill-rule="evenodd" clip-rule="evenodd" d="M291.522 32.9976C287.116 32.9976 283.548 36.3498 283.548 40.4885C283.548 43.8032 285.83 46.603 289 47.5955C289.399 47.6611 289.548 47.4363 289.548 47.2397C289.548 47.0618 289.538 46.4719 289.538 45.8445C287.535 46.191 287.017 45.3857 286.857 44.9643C286.767 44.749 286.379 44.0842 286.04 43.9062C285.761 43.7658 285.362 43.4193 286.03 43.41C286.658 43.4006 287.106 43.9531 287.256 44.1778C287.973 45.3108 289.12 44.9924 289.578 44.7958C289.648 44.3089 289.857 43.9812 290.086 43.7939C288.312 43.6066 286.458 42.9605 286.458 40.0952C286.458 39.2806 286.767 38.6064 287.276 38.082C287.196 37.8948 286.917 37.1269 287.355 36.0969C287.355 36.0969 288.023 35.9003 289.548 36.8648C290.186 36.6962 290.864 36.6119 291.542 36.6119C292.219 36.6119 292.897 36.6962 293.535 36.8648C295.06 35.8909 295.728 36.0969 295.728 36.0969C296.167 37.1269 295.887 37.8948 295.808 38.082C296.316 38.6064 296.625 39.2712 296.625 40.0952C296.625 42.9699 294.761 43.6066 292.987 43.7939C293.276 44.028 293.525 44.4774 293.525 45.1797C293.525 46.1816 293.515 46.9869 293.515 47.2397C293.515 47.4363 293.665 47.6704 294.063 47.5955C295.646 47.0935 297.022 46.1377 297.996 44.8628C298.971 43.5879 299.495 42.058 299.496 40.4885C299.496 36.3498 295.927 32.9976 291.522 32.9976Z" fill="#240D09"/>
<path d="M352.474 46.0762L353.528 45.0218C353.67 44.8816 353.85 44.7856 354.046 44.7455C354.241 44.7054 354.444 44.7229 354.63 44.7959L355.915 45.3089C356.103 45.3851 356.263 45.5152 356.377 45.6827C356.491 45.8502 356.553 46.0477 356.555 46.2503V48.6037C356.554 48.7415 356.525 48.8777 356.47 49.004C356.415 49.1303 356.335 49.2442 356.234 49.3387C356.134 49.4333 356.016 49.5066 355.886 49.5541C355.757 49.6017 355.619 49.6227 355.482 49.6157C346.478 49.0556 344.661 41.4305 344.317 38.5123C344.301 38.369 344.316 38.2239 344.36 38.0867C344.404 37.9494 344.477 37.823 344.573 37.7159C344.67 37.6087 344.788 37.5232 344.92 37.465C345.052 37.4067 345.194 37.3771 345.339 37.3779H347.612C347.815 37.3785 348.013 37.4398 348.181 37.5539C348.348 37.668 348.478 37.8296 348.553 38.0181L349.066 39.303C349.142 39.4881 349.161 39.6912 349.122 39.8871C349.082 40.083 348.986 40.2629 348.845 40.4044L347.791 41.4588C347.791 41.4588 348.398 45.5678 352.474 46.0762Z" fill="#240D09"/>
<path d="M415.93 38.9194H404.56C403.914 38.9194 403.294 39.1528 402.837 39.5682C402.38 39.9836 402.123 40.547 402.123 41.1344V48.5177C402.123 49.1051 402.38 49.6685 402.837 50.0839C403.294 50.4993 403.914 50.7326 404.56 50.7326H415.93C416.576 50.7326 417.196 50.4993 417.653 50.0839C418.11 49.6685 418.367 49.1051 418.367 48.5177V41.1344C418.367 40.547 418.11 39.9836 417.653 39.5682C417.196 39.1528 416.576 38.9194 415.93 38.9194ZM415.93 40.3961L410.651 43.6964C410.528 43.7612 410.388 43.7953 410.245 43.7953C410.102 43.7953 409.962 43.7612 409.839 43.6964L404.56 40.3961H415.93Z" fill="#240D09"/>
</svg>
